<svg xmlns="http://www.w3.org/2000/svg" xmlns:xlink="http://www.w3.org/1999/xlink" width="144" height="32" viewBox="0 0 144 32"><radialGradient id="a" cx="50%" cy="50%" r="50%"><stop offset="0" stop-color="#fff"/><stop offset="1" stop-color="#f2f2f2" stop-opacity=".2"/></radialGradient><linearGradient id="b"><stop offset="0" stop-color="#fff"/><stop offset="1" stop-color="#c8c8c8"/></linearGradient><linearGradient id="c" x1="50%" x2="50%" y1="-7.865%" y2="249.663%" xlink:href="#b"/><linearGradient id="d" x1="50%" x2="50%" y1="0%" y2="238.75%" xlink:href="#b"/><linearGradient id="e" x1="50%" x2="50%" y1="0%" y2="100%" xlink:href="#b"/><linearGradient id="f" x1="50%" x2="50%" y1="-33.333%" y2="152.083%" xlink:href="#b"/><linearGradient id="g" x1="40%" x2="40%" y1="-140%" y2="98.75%" xlink:href="#b"/><linearGradient id="h" x1="60%" x2="60%" y1="-140%" y2="98.75%" xlink:href="#b"/><linearGradient id="i" x1="50%" x2="50%" y1="0%" y2="298.438%" xlink:href="#b"/><linearGradient id="j" x1="50%" x2="50%" y1="-200%" y2="100%" xlink:href="#b"/><linearGradient id="k" x1="50%" x2="50%" y1="-200%" y2="110.938%" xlink:href="#b"/><linearGradient id="l" x1="55%" x2="55%" y1="0%" y2="100%" xlink:href="#b"/><linearGradient id="m" x1="50%" x2="50%" y1="0%" y2="100%"><stop offset="0" stop-color="#fff"/><stop offset=".994" stop-color="#c8c8c8"/></linearGradient><g fill="none" stroke="#fff"><path d="m98.5 7.5h11"/><path d="m98.5 3.5h11"/><path d="m98.5 11.5h11"/></g><path fill="#fff" d="m108 11.5c0-.8284.4477-1.5 1-1.5s1 .6716 1 1.5-.4477 1.5-1 1.5-1-.6716-1-1.5z"/><path fill="#fff" d="m104 7.5c0-.8284.4477-1.5 1-1.5s1 .6716 1 1.5-.4477 1.5-1 1.5-1-.6716-1-1.5z"/><path fill="#fff" d="m108 3.5c0-.8284.4477-1.5 1-1.5s1 .6716 1 1.5-.4477 1.5-1 1.5-1-.6716-1-1.5z"/><path fill="#333" stroke="#fff" d="m83 21h10v6h-10z"/><path fill="url(#a)" d="m81 8c0-2.7615 3.134-5 7-5s7 2.2385 7 5-3.134 5-7 5-7-2.2385-7-5z"/><path fill="#333" stroke="#fff" d="m83 5h10v6h-10z"/><path fill="url(#c)" d="m73.795 4.205c1.4205.6735 2.405 2.1184 2.405 3.795 0 2.3196-1.8804 4.2-4.2 4.2s-4.2-1.8804-4.2-4.2c0-1.6766.9845-3.1215 2.405-3.795l-1.33-1.33c-1.7249 1.0539-2.875 2.9556-2.875 5.125 0 3.3138 2.6862 6 6 6s6-2.6862 6-6c0-2.1694-1.1501-4.0711-2.875-5.125z"/><path fill="url(#d)" d="m71 2h-5l5 5z"/><path fill="#a8a8b7" d="m73.795 20.205c1.4205.6735 2.405 2.1184 2.405 3.795 0 2.3196-1.8804 4.2-4.2 4.2s-4.2-1.8804-4.2-4.2c0-1.6766.9845-3.1215 2.405-3.795l-1.33-1.33c-1.7249 1.0539-2.875 2.9556-2.875 5.125 0 3.3138 2.6862 6 6 6s6-2.6862 6-6c0-2.1694-1.1501-4.0711-2.875-5.125z"/><path fill="#a8a8b7" d="m71 18h-5l5 5z"/><path fill="none" stroke="#b0b0b0" d="m49 2h14v12h-14z" visibility="hidden"/><path fill="none" stroke="#fff" d="m55 7c-4.7187-3.2187-4.937 5.9405 0 3"/><path fill="none" stroke="#fff" d="m60 7c-4.7187-3.2187-4.937 5.9405 0 3"/><path fill="url(#e)" d="m50 3h12v10h-12zm-1-1v12h14v-12z"/><path fill="none" d="m49 2h14v12h-14z"/><path fill="url(#f)" d="m17 5h5v6h-5z"/><path fill="url(#e)" d="m21 5 4-3v12l-4-2.9375z"/><path fill="url(#f)" d="m17 21h5v6h-5z"/><path fill="url(#e)" d="m21 21 4-3v12l-4-2.9375z"/><path fill="none" stroke="#fff" d="m27 18s3.0625-.625 3 6-3 6-3 6"/><path fill="none" stroke="#fff" d="m26 21.0079s2.041-.3117 1.9994 2.9921c-.0417 3.3038-1.9994 2.9921-1.9994 2.9921"/><path fill="url(#e)" d="m14 8.5-11 5.5v-11z"/><path fill="url(#e)" d="m3 18h3v12h-3z"/><path fill="url(#e)" d="m10 18h3v12h-3z"/><path fill="url(#d)" d="m34 2h5l-5 5z"/><path fill="url(#g)" d="m34 14h5l-5-5z"/><path fill="url(#d)" d="m46 2h-5l5 5z"/><path fill="url(#h)" d="m46 14h-5l5-5z"/><path fill="url(#i)" d="m42 22h4l-4-4z"/><path fill="url(#d)" d="m38 22v-4l-4 4z"/><path fill="url(#j)" d="m38 26h-4l4 4z"/><path fill="url(#k)" d="m42 26v4l4-4z"/><path fill="url(#l)" d="m115 3h10v10h-10z"/><path fill="url(#m)" d="m135.2346 6.1522c1.0205-.4227 2.1905.0619 2.6132 1.0824.4226 1.0205-.0619 2.1904-1.0824 2.6132-1.0205.4227-2.1905-.0619-2.6132-1.0824s.0619-2.1905 1.0824-2.6132zm-1.9611-4.7346 2.7265 2.5878 2.7265-2.5878.0981 3.7578 3.7578.0981-2.5878 2.7265 2.5878 2.7265-3.7578.0981-.0981 3.7578-2.7265-2.5878-2.7265 2.5878-.0981-3.7578-3.7578-.0981 2.5878-2.7265-2.5878-2.7265 3.7578-.0981z"/></svg>