<svg enable-background="new 0 0 20 20" viewBox="0 0 20 20" xmlns="http://www.w3.org/2000/svg"><path d="m13.981 2h-7.963s-.996 0-.996 1h9.955c0-1-.996-1-.996-1zm2.987 3c0-1-.995-1-.995-1h-11.946s-.995 0-.995 1v1h13.936zm1.99 1c-.588-.592-.588-.592-.588-.592v1.592h-16.74v-1.592s0 0-.589.592-1.011.75-.774 2c.236 1.246 1.379 8.076 1.549 9 .186 1.014 1.217 1 1.217 1h13.936s1.03.014 1.217-1c.17-.924 1.312-7.754 1.549-9 .235-1.25-.187-1.408-.777-2zm-4.958 5.997c0 .554-.449 1.003-1.003 1.003h-5.994c-.554 0-1.003-.449-1.003-1.003v-1.997h1v2h6v-2h1z"/></svg>