<svg enable-background="new 0 0 20 20" viewBox="0 0 20 20" xmlns="http://www.w3.org/2000/svg"><path d="m10 8c-1.657 0-3 1.344-3 3s1.343 3 3 3c1.656 0 3-1.344 3-3s-1.344-3-3-3zm8-3h-2.4c-.33 0-.686-.256-.789-.57l-.621-1.861c-.105-.313-.459-.569-.79-.569h-6.8c-.33 0-.686.256-.789.568l-.622 1.862c-.104.314-.459.57-.789.57h-2.4c-1.1 0-2 .9-2 2v9c0 1.1.9 2 2 2h16c1.1 0 2-.9 2-2v-9c0-1.1-.9-2-2-2zm-8 11c-2.762 0-5-2.238-5-5s2.238-5 5-5c2.761 0 5 2.238 5 5s-2.239 5-5 5zm7.5-7.8c-.387 0-.7-.314-.7-.701 0-.385.313-.7.7-.7s.7.314.7.7c0 .387-.313.701-.7.701z"/></svg>