<svg enable-background="new 0 0 20 20" viewBox="0 0 20 20" xmlns="http://www.w3.org/2000/svg"><path d="m5.719 14.75c-.236 0-.474-.083-.664-.252l-5.06-4.498 5.341-4.748c.412-.365 1.044-.33 1.411.083s.33 1.045-.083 1.412l-3.659 3.253 3.378 3.002c.413.367.45.999.083 1.412-.197.223-.472.336-.747.336zm8.945-.002 5.341-4.748-5.06-4.498c-.413-.367-1.045-.33-1.411.083-.367.413-.33 1.045.083 1.412l3.378 3.003-3.659 3.252c-.413.367-.45.999-.083 1.412.197.223.472.336.747.336.236 0 .474-.083.664-.252zm-4.678 1.417 2-12c.091-.545-.277-1.06-.822-1.151-.547-.092-1.061.277-1.15.822l-2 12c-.091.545.277 1.06.822 1.151.056.009.11.013.165.013.48 0 .904-.347.985-.835z"/></svg>