<svg enable-background="new 0 0 20 20" viewBox="0 0 20 20" xmlns="http://www.w3.org/2000/svg"><path d="m16.783 10c0-1.049.646-1.875 1.617-2.443-.176-.584-.407-1.145-.692-1.672-1.089.285-1.97-.141-2.711-.883-.741-.74-.968-1.621-.683-2.711-.527-.285-1.088-.518-1.672-.691-.568.97-1.595 1.615-2.642 1.615-1.048 0-2.074-.645-2.643-1.615-.585.173-1.144.406-1.671.691.285 1.09.059 1.971-.684 2.711-.74.742-1.621 1.168-2.711.883-.285.527-.517 1.088-.691 1.672.97.568 1.615 1.394 1.615 2.443 0 1.047-.645 2.074-1.615 2.643.175.584.406 1.144.691 1.672 1.09-.285 1.971-.059 2.711.682.741.742.969 1.623.684 2.711.527.285 1.087.518 1.672.693.568-.973 1.595-1.617 2.643-1.617 1.047 0 2.074.645 2.643 1.617.584-.176 1.144-.408 1.672-.693-.285-1.088-.059-1.969.683-2.711.741-.74 1.622-1.166 2.711-.883.285-.527.517-1.086.692-1.672-.973-.569-1.619-1.395-1.619-2.442zm-6.783 3.652c-2.018 0-3.653-1.635-3.653-3.652 0-2.018 1.636-3.654 3.653-3.654 2.018 0 3.652 1.637 3.652 3.654 0 2.018-1.634 3.652-3.652 3.652z"/></svg>