<svg enable-background="new 0 0 20 20" viewBox="0 0 20 20" xmlns="http://www.w3.org/2000/svg"><path d="m6.109.902-5.709 3.555 3.911 3.279 5.689-3.693zm7.343 15.09c-.102 0-.203-.033-.285-.102l-3.167-2.628-3.167 2.629c-.082.068-.184.102-.285.102-.085 0-.17-.023-.244-.072l-2.346-1.533v.904l6.042 3.806 6.042-3.807v-.904l-2.346 1.533c-.074.049-.159.072-.244.072zm6.148-11.535-5.71-3.555-3.89 3.141 5.688 3.693zm-9.6 6.834 3.528 2.928 5.641-3.688-3.481-2.795zm-3.528 2.928 3.528-2.928-5.689-3.555-3.48 2.795z"/></svg>