<svg enable-background="new 0 0 20 20" viewBox="0 0 20 20" xmlns="http://www.w3.org/2000/svg"><path d="m10 .4c-5.295 0-9.601 4.307-9.601 9.6s4.306 9.6 9.601 9.6c5.293 0 9.6-4.307 9.6-9.6s-4.307-9.6-9.6-9.6zm8.188 9.6c0 1.873-.636 3.6-1.696 4.98-.3-.234-.619-.867-.319-1.523.303-.66.382-2.188.312-2.783-.066-.594-.375-2.025-1.214-2.039-.838-.012-1.413-.289-1.911-1.283-1.033-2.068 1.939-2.465.906-3.609-.289-.322-1.783 1.322-2.002-.869-.014-.157.135-.392.336-.636 3.244 1.09 5.588 4.157 5.588 7.762zm-9.313-8.107c-.196.382-.713.537-1.027.824-.684.619-.978.533-1.346 1.127-.371.594-1.567 1.449-1.567 1.879s.604.936.906.838c.302-.1 1.099-.094 1.567.07.469.166 3.914.332 2.816 3.244-.348.926-1.873.77-2.279 2.303-.061.225-.272 1.186-.285 1.5-.025.486.344 2.318-.125 2.318-.471 0-1.738-1.639-1.738-1.936s-.328-1.338-.328-2.23c0-.891-1.518-.877-1.518-2.062 0-1.068.823-1.6.638-2.113-.181-.51-1.627-.527-2.23-.59 1.053-2.731 3.53-4.758 6.516-5.172zm-1.451 15.877c.492-.26.542-.596.988-.613.51-.023.925-.199 1.5-.326.51-.111 1.423-.629 2.226-.695.678-.055 2.015.035 2.375.689-1.295.861-2.848 1.363-4.514 1.363-.899 0-1.765-.149-2.575-.418z"/></svg>