<svg enable-background="new 0 0 20 20" viewBox="0 0 20 20" xmlns="http://www.w3.org/2000/svg"><path d="m17 1h-14c-1.1 0-2 .9-2 2v14c0 1.101.9 2 2 2h14c1.1 0 2-.899 2-2v-14c0-1.1-.9-2-2-2zm-7.016 14.523c3.059 0 5.538-2.481 5.538-5.539 0-.338-.043-.664-.103-.984h1.581v7.216c0 .382-.31.69-.693.69h-12.614c-.383 0-.693-.308-.693-.69v-7.216h1.549c-.061.32-.104.646-.104.984 0 3.059 2.481 5.539 5.539 5.539zm-3.461-5.539c0-1.912 1.55-3.461 3.462-3.461 1.911 0 3.462 1.549 3.462 3.461s-1.551 3.462-3.462 3.462c-1.913 0-3.462-1.55-3.462-3.462zm9.784-3.984h-1.615c-.382 0-.692-.312-.692-.692v-1.617c0-.382.31-.691.691-.691h1.615c.384 0 .694.309.694.691v1.616c0 .381-.31.693-.693.693z"/></svg>