<svg enable-background="new 0 0 20 20" viewBox="0 0 20 20" xmlns="http://www.w3.org/2000/svg"><path clip-rule="evenodd" d="m16.432 15c-2.045-5.107-4.432-6.453-4.432-9v-3h.5c.276 0 .5-.224.5-.5v-1c0-.276-.224-.5-.5-.5h-5c-.276 0-.5.224-.5.5v1c0 .276.224.5.5.5h.5v3c0 2.547-2.387 3.893-4.432 9-.651 1.625-2.323 4 6.432 4s7.083-2.375 6.432-4zm-1.617 1.751c-.702.21-2.099.449-4.815.449s-4.113-.239-4.815-.449c-.249-.074-.346-.363-.258-.628.22-.67.635-1.828 1.411-3.121 1.896-3.159 3.863.497 5.5.497s1.188-1.561 1.824-.497c.774 1.294 1.191 2.451 1.411 3.121.088.265-.009.553-.258.628z" fill-rule="evenodd"/></svg>