<svg xmlns="http://www.w3.org/2000/svg" xmlns:xlink="http://www.w3.org/1999/xlink" id="LinkedIn" x="0" y="0" enable-background="new 0 0 20 20" version="1.1" viewBox="0 0 20 20" xml:space="preserve"><g><path d="M5,3c0,1.062-0.71,1.976-2.001,1.976C1.784,4.976,1,4.114,1,3.052C1,1.962,1.76,1,3,1C4.24,1,4.976,1.91,5,3z M1,19V6h4v13 H1z"/><path d="M7,10.444c0-1.545-0.051-2.836-0.102-3.951h3.594l0.178,1.723h0.076c0.506-0.811,1.746-2,3.822-2 c2.532,0,4.432,1.695,4.432,5.342V19h-4v-6.861c0-1.594-0.607-2.81-2-2.81c-1.062,0-1.594,0.86-1.873,1.569 C11.025,11.152,11,11.506,11,11.861V19H7V10.444z"/></g></svg>