<svg enable-background="new 0 0 20 20" viewBox="0 0 20 20" xmlns="http://www.w3.org/2000/svg"><path d="m1.574 5.286c.488.262 7.248 3.894 7.5 4.029s.578.199.906.199.654-.064.906-.199 7.012-3.767 7.5-4.029c.489-.263.951-1.286.054-1.286h-16.919c-.897 0-.435 1.023.053 1.286zm17.039 2.203c-.555.289-7.387 3.849-7.727 4.027s-.578.199-.906.199-.566-.021-.906-.199-7.133-3.739-7.688-4.028c-.39-.204-.386.035-.386.219s0 7.293 0 7.293c0 .42.566 1 1 1h16c.434 0 1-.58 1-1 0 0 0-7.108 0-7.292s.004-.423-.387-.219z"/></svg>