<svg enable-background="new 0 0 20 20" viewBox="0 0 20 20" xmlns="http://www.w3.org/2000/svg"><path d="m16.399 7.643v2.757c0 2.236-1.643 4.629-5.399 4.959v2.641h2.6c.22 0 .4.18.4.4v1.2c0 .221-.181.4-.4.4h-7.2c-.22 0-.4-.18-.4-.4v-1.2c0-.22.18-.4.399-.4h2.601v-2.641c-3.758-.33-5.4-2.723-5.4-4.959v-2.757c0-.221.18-.4.4-.4h.6c.22 0 .4.18.4.4v2.757c0 1.336 1.053 3.6 5 3.6 3.946 0 5-2.264 5-3.6v-2.757c0-.221.18-.4.399-.4h.601c.22-.001.399.179.399.4zm-6.399 4.357c2.346 0 3-.965 3-1.6v-3.158h-6v3.158c0 .635.652 1.6 3 1.6zm3-10.4c0-.637-.654-1.6-3-1.6-2.348 0-3 .963-3 1.6v4.242h6z"/></svg>