<svg enable-background="new 0 0 20 20" viewBox="0 0 20 20" xmlns="http://www.w3.org/2000/svg"><path d="m5.274 6.915c.2 0 .394.029.576.086.69-.773 1.455-1.477 2.283-2.1-.035-.146-.054-.299-.054-.455 0-.217.036-.426.102-.621-.929-.664-1.937-1.223-3.011-1.654-1.005.621-1.882 1.431-2.582 2.381.519.92 1.136 1.777 1.838 2.557.256-.124.543-.194.848-.194zm-1.958 1.957c0-.275.058-.537.159-.773-.628-.692-1.197-1.436-1.695-2.229-.625 1.242-.98 2.645-.98 4.131 0 1.719.474 3.328 1.295 4.705.294-1.654.851-3.219 1.62-4.652-.25-.328-.399-.739-.399-1.182zm6.72-6.383c.517 0 .985.201 1.336.529 1.021-.439 2.096-.777 3.215-.992-1.351-.779-2.917-1.226-4.587-1.226-1.139 0-2.229.209-3.236.588.799.395 1.561.855 2.277 1.375.292-.174.631-.274.995-.274zm2.926 9.219c.122-.254.295-.479.509-.656-.578-1.777-1.493-3.404-2.672-4.803-.234.1-.492.154-.764.154-.425 0-.816-.137-1.137-.365-.71.539-1.367 1.143-1.964 1.803.188.299.297.652.297 1.031 0 .203-.031.4-.09.586 1.717 1.146 3.694 1.934 5.821 2.25zm2.539 2.643c.026.371.041.744.041 1.121 0 .664-.042 1.318-.122 1.961 1.56-1.139 2.748-2.758 3.347-4.639-.71.172-1.438.295-2.181.365-.173.537-.572.969-1.085 1.192zm-2.997-1.327c-2.272-.377-4.377-1.244-6.21-2.484-.298.182-.647.289-1.021.289-.139 0-.272-.014-.402-.041-.877 1.662-1.438 3.517-1.599 5.484.876.94 1.944 1.697 3.145 2.205 1.492-2.293 3.576-4.189 6.087-5.453zm3.672-9.843c-1.475.143-2.883.514-4.193 1.068.006.066.01.131.01.197 0 .309-.074.6-.201.859 1.311 1.539 2.327 3.33 2.969 5.291.797.016 1.477.502 1.77 1.195.886-.09 1.748-.26 2.578-.504.06-.42.092-.85.092-1.287-.001-2.704-1.167-5.136-3.025-6.819zm-2.687 10.888c-2.344 1.098-4.304 2.789-5.723 4.856.715.179 1.463.275 2.234.275 1.387 0 2.702-.309 3.882-.859.19-.928.29-1.887.29-2.869 0-.355-.016-.707-.043-1.055-.236-.076-.453-.193-.64-.348z"/></svg>