<svg enable-background="new 0 0 20 20" viewBox="0 0 20 20" xmlns="http://www.w3.org/2000/svg"><path d="m18.64 2.634c-.344.121-17.321 6.104-17.656 6.222-.284.1-.347.345-.01.479.401.161 3.796 1.521 3.796 1.521l2.25.901s10.838-7.958 10.984-8.066c.148-.108.318.095.211.211-.107.117-7.871 8.513-7.871 8.513v.002l-.452.503.599.322s4.65 2.504 4.982 2.682c.291.156.668.027.752-.334.099-.426 2.845-12.261 2.906-12.525.079-.343-.148-.552-.491-.431zm-11.64 14.528c0 .246.139.315.331.141.251-.229 2.85-2.561 2.85-2.561l-3.181-1.644z"/></svg>