<svg enable-background="new 0 0 20 20" viewBox="0 0 20 20" xmlns="http://www.w3.org/2000/svg"><path d="m8.617 13.227c-.526 2.754-1.167 5.394-3.068 6.773-.586-4.162.861-7.287 1.534-10.605-1.147-1.93.138-5.812 2.555-4.855 2.975 1.176-2.576 7.172 1.15 7.922 3.891.781 5.479-6.75 3.066-9.199-3.485-3.538-10.146-.083-9.326 4.982.199 1.238 1.478 1.613.511 3.322-2.231-.494-2.897-2.254-2.811-4.6.138-3.84 3.449-6.527 6.771-6.9 4.201-.471 8.144 1.543 8.689 5.494.613 4.461-1.896 9.293-6.389 8.945-1.218-.095-1.728-.699-2.682-1.279z"/></svg>