<svg enable-background="new 0 0 20 20" viewBox="0 0 20 20" xmlns="http://www.w3.org/2000/svg"><path d="m19.388.405c-.111-.314-.454-.48-.769-.371s-.481.455-.372.77c.929 2.67-.915 4.664-2.321 5.732l-.568-.814c-.191-.273-.618-.5-.95-.504l-3.188.014c-.332-.006-.825.146-1.097.338l-9.394 6.587c-.455.32-.565.947-.247 1.404l4.269 6.108c.32.455.831.4 1.287.082l9.394-6.588c.27-.191.582-.603.692-.918l.998-3.145c.11-.314.043-.793-.148-1.066l-.346-.496c1.888-1.447 3.848-4.004 2.76-7.133zm-4.371 9.358c-.727.51-1.731.332-2.24-.396-.511-.73-.333-1.734.395-2.246.578-.405 1.328-.376 1.868.017-.272.164-.459.26-.494.275-.301.143-.43.504-.288.805.104.219.321.348.547.348.086 0 .174-.02.257-.059.194-.092.402-.201.619-.33.097.594-.139 1.217-.664 1.586z"/></svg>