<svg enable-background="new 0 0 20 20" viewBox="0 0 20 20" xmlns="http://www.w3.org/2000/svg"><path d="m11.933 13.069s7.059-5.094 6.276-10.924c-.017-.127-.059-.213-.112-.268-.054-.055-.137-.098-.263-.115-5.697-.801-10.674 6.422-10.674 6.422-4.318-.517-4.004.344-5.974 5.076-.377.902.234 1.213.904.959.67-.252 2.148-.811 2.148-.811l2.59 2.648s-.546 1.514-.793 2.199c-.248.686.055 1.311.938.926 4.624-2.016 5.466-1.694 4.96-6.112zm1.009-5.916c-.598-.613-.598-1.604 0-2.217.598-.611 1.567-.611 2.166 0 .598.611.598 1.603 0 2.217-.599.611-1.569.611-2.166 0z"/></svg>