<svg enable-background="new 0 0 20 20" viewBox="0 0 20 20" xmlns="http://www.w3.org/2000/svg"><path d="m.672 13.055.328-1.401-.328-1.447c-.009-.043-.092-.076-.191-.076-.102 0-.184.033-.191.076l-.29 1.447.289 1.4c.008.045.09.076.191.076.1.001.183-.03.192-.075zm2.051.777.277-2.164-.277-3.348c-.009-.084-.114-.152-.239-.152-.127 0-.233.068-.238.152l-.246 3.348.246 2.164c.006.086.111.152.238.152.125 0 .23-.066.239-.152zm2.045-.035.232-2.127-.232-4.457c-.006-.106-.129-.188-.282-.188-.152 0-.275.082-.281.188l-.205 4.457.205 2.129c.006.103.129.186.281.186.153-.001.276-.083.282-.188zm2.042-.031.19-2.096-.19-4.49c-.005-.123-.146-.221-.32-.221-.176 0-.316.098-.321.221l-.169 4.49.17 2.096c.004.123.145.221.32.221.174-.001.315-.096.32-.221zm2.04-.028.15-2.066-.15-5.149c-.004-.142-.164-.255-.358-.255s-.354.115-.357.256l-.135 5.146.135 2.068c.003.141.163.256.357.256s.354-.113.358-.256zm1.427.258c.008 0 7.1.004 7.145.004 1.424 0 2.578-1.117 2.578-2.494s-1.154-2.492-2.578-2.492c-.353 0-.689.07-.996.193-.205-2.246-2.153-4.008-4.529-4.008-.581 0-1.148.111-1.648.297-.196.074-.247.148-.249.295v7.91c.002.153.124.279.277.295z"/></svg>