<svg enable-background="new 0 0 20 20" viewBox="0 0 20 20" xmlns="http://www.w3.org/2000/svg"><path d="m20 10c0-1.361-.758-2.616-2.031-3.622-.002-.001-.004-.001-.005-.003-.362-3.572-3.787-6.375-7.964-6.375s-7.602 2.803-7.964 6.375c-.001.002-.003.002-.005.003-1.273 1.006-2.031 2.261-2.031 3.622 0 3.112 3.947 5.669 9 5.97v1.03c0 1-1.821 1.911-1.821 1.911-.099.049-.148.173-.109.277 0 0 .305.812.93.812s1.124-.5 2.374-.5 2.439.432 2.439.432c.102.038.251.005.329-.073l.717-.717c.078-.078.058-.173-.046-.212 0 0-1.812-.68-1.812-1.93 0-.312 0-.706 0-1.121 4.564-.555 7.999-2.976 7.999-5.879zm-18 0c0-1.019.768-1.945 2.022-2.651-.01-.116-.022-.232-.022-.349 0-2.762 2.687-5 6-5s6 2.238 6 5c0 .117-.012.233-.021.349 1.253.706 2.021 1.632 2.021 2.651 0 1.864-2.551 3.424-5.999 3.869 0-.401 0-.668 0-.668 0-.11.065-.262.145-.337l1.833-1.726c.08-.076.146-.227.146-.337v-.851c0-.11-.078-.155-.172-.099l-1.779 1.047c-.096.056-.173.012-.173-.099v-3.599c0-.11-.085-.172-.19-.137l-2.621.874c-.104.035-.189.153-.189.263v2.6c0 .11-.079.158-.177.107l-2.022-1.064c-.097-.051-.24-.03-.318.048l-.342.342c-.078.078-.073.201.009.273l2.7 2.361c.083.073.15.222.15.332v.765c-3.945-.245-7.001-1.924-7.001-3.964z"/></svg>