<svg enable-background="new 0 0 20 20" viewBox="0 0 20 20" xmlns="http://www.w3.org/2000/svg"><path d="m15.6 18.196c-.777.371-1.48.631-2.109.781-.63.148-1.311.223-2.043.223-.831 0-1.566-.107-2.205-.318-.639-.213-1.183-.516-1.635-.908-.451-.395-.764-.812-.938-1.254-.174-.443-.261-1.086-.261-1.926v-6.455h-2.009v-2.604c.714-.234 1.326-.57 1.835-1.01.51-.438.918-.965 1.227-1.58.308-.613.519-1.396.636-2.345h2.585v4.652h4.314v2.887h-4.314v4.719c0 1.066.056 1.752.168 2.055.111.303.319.545.622.725.403.244.863.367 1.381.367.92 0 1.836-.303 2.746-.908z"/></svg>