<svg enable-background="new 0 0 20 20" viewBox="0 0 20 20" xmlns="http://www.w3.org/2000/svg"><path d="m17.703 1h-2.828c-.223 0-.553.105-.69.381s-.31.619-.31.619l-5 10 3 6s.172.344.31.619.467.381.69.381h2.828c.5 0 .48-.381.355-.631s-.183-.369-.183-.369l-3-6 5-10s.059-.119.184-.369.144-.631-.356-.631zm-10.888 4.381c-.137-.276-.467-.381-.69-.381h-2.828c-.5 0-.48.381-.355.631s.183.369.183.369l1.25 2.5-2.25 4.5s-.059.119-.184.369-.144.631.356.631h2.828c.223 0 .553-.106.691-.381.137-.275.309-.619.309-.619l2.25-4.5-1.25-2.5s-.172-.344-.31-.619z"/></svg>